# xmcd
#
# Track frame offsets: 
#        150
#        14492
#        16477
#        25782
#        27460
#        34010
#        52685
#        57950
#        67080
#        73597
#        81437
#        98150
#        108485
#        112265
#        123932
#        130122
#        141445
#        167135
#        185372
#        188847
#        201447
#        202277
#        208742
#        220890
#        224377
#        239122
#        267625
#        281330
#        294750
#        299140
#
# Disc length: 4226 seconds
#
# Revision: 0
# Processed by: cddbd v1.5.1PL2 Copyright (c) Steve Scherf et al.
# Submitted via: ExactAudioCopy v0.95a5
#
DISCID=eb10801e
DTITLE=Various Artist - Conversation With the Blues
DYEAR=1900
DGENRE=Blues
TTITLE0=Boogie Woogie Red - So much good feeling
TTITLE1=Willie Thomas - A little different
TTITLE2=James Butch Cage, Willie Thomas - Kill that nigger dead
TTITLE3=Lil Son Jackson - The onliest way
TTITLE4=J.B. Lenoir - My father's style  - So it rocked on  - Move to Ka
TTITLE4=nsas City
TTITLE5=Otis Spann - When she came back  - Poor country boy 
TTITLE6=Lightnin' Hopkins - Ain't no easy thing
TTITLE7=Mance Lipscomb - Evil heart blues
TTITLE8=Blind Arvella Gray - A Roughneck
TTITLE9=Roosevelt Sykes - West Helena blues
TTITLE10=Will Shade - Days of 1900  - Newport News blues
TTITLE11=Whistling Alex Moore - Chock house days  - Come and get me
TTITLE12=Brother John Sellers - Move back! For what?
TTITLE13=J.B. Lenoir - I been down so long
TTITLE14=James Stump Johnson - A place they call Boots'
TTITLE15=Henry Brown - Henry Brown blues
TTITLE16=Blind Arvella Gray, Blind James Brewer - They called us gandy
TTITLE16=dancers  - Work songs and John Henry
TTITLE17=Edwin Buster Pickens - Santa Fe train
TTITLE18=Robert Curtis Smith - Most reason I sing
TTITLE19=Jasper Love - Santa Fe blues
TTITLE20=John Lee Hooker - Somewhere down the line
TTITLE21=Robert Curtis Smith - I hope one day my luck will change
TTITLE22=Otis Spann - Only places they can go  - People calls me Lucky
TTITLE23=Henry Townsend - What have I committed
TTITLE24=James Butch Cage - 'Tween midnight and day
TTITLE25=Little Brother Montgomery - Walking basses and dud low Joe  - 
TTITLE25=The first Vickburg blues
TTITLE26=Roosevelt Sykes - They call him 'Pork Chops'  - Forty-four blu
TTITLE26=es
TTITLE27=Mance Lipscomb - Blues in the bottle
TTITLE28=Edwin Buster Pickens - To have the blues within
TTITLE29=Edwin Buster Pickens - Colorado Springs blues
EXTD=
EXTT0=
EXTT1=
EXTT2=
EXTT3=
EXTT4=
EXTT5=
EXTT6=
EXTT7=
EXTT8=
EXTT9=
EXTT10=
EXTT11=
EXTT12=
EXTT13=
EXTT14=
EXTT15=
EXTT16=
EXTT17=
EXTT18=
EXTT19=
EXTT20=
EXTT21=
EXTT22=
EXTT23=
EXTT24=
EXTT25=
EXTT26=
EXTT27=
EXTT28=
EXTT29=
PLAYORDER=
